<!-- icon666.com - MILLIONS vector ICONS FREE --><svg version="1.1" id="Capa_1" xmlns="http://www.w3.org/2000/svg" xmlns:xlink="http://www.w3.org/1999/xlink" x="0px" y="0px" viewBox="0 0 400.99 400.99" style="enable-background:new 0 0 400.99 400.99;" xml:space="preserve"><g><path d="M277.854,55.602H208V7.5c0-4.143-3.357-7.5-7.5-7.5c-4.142,0-7.5,3.357-7.5,7.5v48.102h-69.854 c-13.147,0-23.845,10.318-23.845,23.467c0,0.334,0.082,1.488,0.093,1.553l42.262,266.627c0.577,3.642,3.719,6.326,7.407,6.326H193 v39.916c0,4.143,3.358,7.5,7.5,7.5c4.143,0,7.5-3.357,7.5-7.5v-39.916h43.938c3.689,0,6.83-2.684,7.408-6.326l42.262-266.627 c0.01-0.063,0.084-1.514,0.082-1.553C301.485,66.094,290.875,55.602,277.854,55.602z M284.021,95.752h-56.597 c-4.142,0-7.5,3.357-7.5,7.5c0,4.143,3.358,7.5,7.5,7.5h54.219l-6.669,42.074h-34.696c-4.142,0-7.5,3.357-7.5,7.5 c0,4.143,3.358,7.5,7.5,7.5h32.319l-6.669,42.072h-52.684c-4.142,0-7.5,3.357-7.5,7.5c0,4.143,3.358,7.5,7.5,7.5h50.306 l-6.668,42.072h-29.458c-4.142,0-7.5,3.357-7.5,7.5s3.358,7.5,7.5,7.5h27.08l-8.972,56.603h-90.064l-4.449-28.066h42.578 c4.143,0,7.5-3.357,7.5-7.5c0-4.143-3.357-7.5-7.5-7.5h-44.955l-6.669-42.074h67.347c4.143,0,7.5-3.357,7.5-7.5 c0-4.143-3.357-7.5-7.5-7.5h-69.725l-6.669-42.072h54.594c4.143,0,7.5-3.357,7.5-7.5c0-4.143-3.357-7.5-7.5-7.5h-56.971 l-6.669-42.072h35.912c4.143,0,7.5-3.357,7.5-7.5c0-4.143-3.357-7.5-7.5-7.5h-38.29l-7.179-45.291 c0.236-4.668,4.097-8.396,8.822-8.396h154.708c4.725,0,8.587,3.729,8.822,8.396L284.021,95.752z"></path></g></svg>