<svg width="43" height="43" viewBox="0 0 43 43" fill="none" xmlns="http://www.w3.org/2000/svg">
<rect width="43" height="43" rx="15" fill="#F0F3FA"/>
<path fill-rule="evenodd" clip-rule="evenodd" d="M21.5566 26.6752C21.2082 27.0696 20.6017 27.1105 20.2021 26.7667L14.3292 21.7141C14.12 21.5342 14 21.2738 14 21C14 20.7262 14.12 20.4658 14.3292 20.2859L20.2021 15.2333C20.6017 14.8895 21.2082 14.9304 21.5566 15.3248C21.905 15.7192 21.8634 16.3177 21.4638 16.6615L17.5221 20.0526L29.04 20.0526C29.5702 20.0526 30 20.4768 30 21C30 21.5232 29.5702 21.9474 29.04 21.9474L17.5221 21.9474L21.4638 25.3385C21.8634 25.6823 21.905 26.2808 21.5566 26.6752Z" fill="black"/>
</svg>
