<svg width="45" height="89" viewBox="0 0 45 89" fill="none" xmlns="http://www.w3.org/2000/svg">
<path d="M39.63 12.3409L24.1258 12.3409V1.66463C24.1258 0.745088 23.3807 0 22.4612 0C21.5419 0 20.7966 0.745088 20.7966 1.66463V12.3409H5.29241C2.37443 12.3409 0 14.631 0 17.5494C0 17.6236 0.0181988 17.8797 0.0206402 17.8941L9.40072 77.0722C9.52879 77.8805 10.2262 78.4762 11.0447 78.4762H20.7966V87.3356C20.7966 88.2551 21.5419 89.0002 22.4612 89.0002C23.3807 89.0002 24.1258 88.2551 24.1258 87.3356V78.4762H33.8779C34.6967 78.4762 35.3938 77.8805 35.5221 77.0722L44.9022 17.8941C44.9044 17.8801 44.9208 17.5581 44.9204 17.5494C44.8749 14.6696 42.52 12.3409 39.63 12.3409ZM40.9987 21.2522H28.437C27.5177 21.2522 26.7724 21.9973 26.7724 22.9169C26.7724 23.8364 27.5177 24.5815 28.437 24.5815H40.4709L38.9907 33.9198H31.2899C30.3706 33.9198 29.6253 34.6649 29.6253 35.5845C29.6253 36.504 30.3706 37.2491 31.2899 37.2491H38.4632L36.983 46.587H25.2897C24.3704 46.587 23.6251 47.3321 23.6251 48.2516C23.6251 49.1712 24.3704 49.9163 25.2897 49.9163H36.4552L34.9752 59.2542H28.437C27.5177 59.2542 26.7724 59.9993 26.7724 60.9188C26.7724 61.8383 27.5177 62.5834 28.437 62.5834H34.4474L32.4561 75.1465H12.4663L11.4788 68.9172H20.9291C21.8486 68.9172 22.5937 68.1722 22.5937 67.2526C22.5937 66.3331 21.8486 65.588 20.9291 65.588H10.9513L9.47108 56.2496H24.4188C25.3383 56.2496 26.0834 55.5045 26.0834 54.585C26.0834 53.6655 25.3383 52.9204 24.4188 52.9204H8.94328L7.46309 43.5825H19.5803C20.4998 43.5825 21.2449 42.8374 21.2449 41.9178C21.2449 40.9983 20.4998 40.2532 19.5803 40.2532H6.93551L5.45532 30.9153H13.426C14.3456 30.9153 15.0906 30.1702 15.0906 29.2507C15.0906 28.3311 14.3456 27.586 13.426 27.586H4.92753L3.33414 17.5337C3.38652 16.4976 4.24347 15.6702 5.29219 15.6702L39.6297 15.6702C40.6785 15.6702 41.5356 16.4978 41.5878 17.5337L40.9987 21.2522Z" fill="white"/>
</svg>
